<mxfile host="app.diagrams.net" agent="Mozilla/5.0 (Macintosh; Intel Mac OS X 10_15_7) AppleWebKit/537.36 (KHTML, like Gecko) Chrome/127.0.0.0 Safari/537.36" version="24.7.12">
  <diagram name="Page-1" id="FMJqjEUXUsbJReTK2O-N">
    <mxGraphModel dx="1434" dy="1886" grid="1" gridSize="10" guides="1" tooltips="1" connect="1" arrows="1" fold="1" page="1" pageScale="1" pageWidth="850" pageHeight="1100" math="0" shadow="0">
      <root>
        <mxCell id="0" />
        <mxCell id="1" parent="0" />
        <mxCell id="CVEjTcs2GT_3670dd3s0-15" value="EVM" style="swimlane;horizontal=0;whiteSpace=wrap;html=1;" parent="1" vertex="1">
          <mxGeometry x="50" y="-290" width="1105" height="1310" as="geometry" />
        </mxCell>
        <mxCell id="CVEjTcs2GT_3670dd3s0-13" value="Functionality" style="swimlane;whiteSpace=wrap;html=1;" parent="CVEjTcs2GT_3670dd3s0-15" vertex="1">
          <mxGeometry x="95" y="70" width="895" height="300" as="geometry" />
        </mxCell>
        <mxCell id="CVEjTcs2GT_3670dd3s0-20" value="transfer" style="rounded=0;whiteSpace=wrap;html=1;" parent="CVEjTcs2GT_3670dd3s0-13" vertex="1">
          <mxGeometry x="20" y="40" width="120" height="60" as="geometry" />
        </mxCell>
        <mxCell id="CVEjTcs2GT_3670dd3s0-21" value="balanceOf" style="rounded=0;whiteSpace=wrap;html=1;" parent="CVEjTcs2GT_3670dd3s0-13" vertex="1">
          <mxGeometry x="160" y="40" width="120" height="60" as="geometry" />
        </mxCell>
        <mxCell id="CVEjTcs2GT_3670dd3s0-22" value="approve" style="rounded=0;whiteSpace=wrap;html=1;" parent="CVEjTcs2GT_3670dd3s0-13" vertex="1">
          <mxGeometry x="300" y="40" width="120" height="60" as="geometry" />
        </mxCell>
        <mxCell id="CVEjTcs2GT_3670dd3s0-23" value="transferFrom" style="rounded=0;whiteSpace=wrap;html=1;" parent="CVEjTcs2GT_3670dd3s0-13" vertex="1">
          <mxGeometry x="20" y="130" width="120" height="60" as="geometry" />
        </mxCell>
        <mxCell id="CVEjTcs2GT_3670dd3s0-24" value="permit (optional)" style="rounded=0;whiteSpace=wrap;html=1;" parent="CVEjTcs2GT_3670dd3s0-13" vertex="1">
          <mxGeometry x="300" y="130" width="120" height="60" as="geometry" />
        </mxCell>
        <mxCell id="H7FyqApONPE0KEF7_pjt-1" value="mint" style="rounded=0;whiteSpace=wrap;html=1;" vertex="1" parent="CVEjTcs2GT_3670dd3s0-13">
          <mxGeometry x="450" y="40" width="120" height="60" as="geometry" />
        </mxCell>
        <mxCell id="H7FyqApONPE0KEF7_pjt-2" value="burn" style="rounded=0;whiteSpace=wrap;html=1;" vertex="1" parent="CVEjTcs2GT_3670dd3s0-13">
          <mxGeometry x="450" y="130" width="120" height="60" as="geometry" />
        </mxCell>
        <mxCell id="H7FyqApONPE0KEF7_pjt-11" value="totalSupply" style="rounded=0;whiteSpace=wrap;html=1;" vertex="1" parent="CVEjTcs2GT_3670dd3s0-13">
          <mxGeometry x="160" y="130" width="120" height="60" as="geometry" />
        </mxCell>
        <mxCell id="H7FyqApONPE0KEF7_pjt-12" value="setRole" style="rounded=0;whiteSpace=wrap;html=1;" vertex="1" parent="CVEjTcs2GT_3670dd3s0-13">
          <mxGeometry x="600" y="40" width="120" height="60" as="geometry" />
        </mxCell>
        <mxCell id="H7FyqApONPE0KEF7_pjt-13" value="upgradeToAndCall" style="rounded=0;whiteSpace=wrap;html=1;" vertex="1" parent="CVEjTcs2GT_3670dd3s0-13">
          <mxGeometry x="750" y="210" width="120" height="60" as="geometry" />
        </mxCell>
        <mxCell id="H7FyqApONPE0KEF7_pjt-14" value="changeOwner" style="rounded=0;whiteSpace=wrap;html=1;" vertex="1" parent="CVEjTcs2GT_3670dd3s0-13">
          <mxGeometry x="750" y="40" width="120" height="60" as="geometry" />
        </mxCell>
        <mxCell id="H7FyqApONPE0KEF7_pjt-19" value="allowance" style="rounded=0;whiteSpace=wrap;html=1;" vertex="1" parent="CVEjTcs2GT_3670dd3s0-13">
          <mxGeometry x="300" y="210" width="120" height="60" as="geometry" />
        </mxCell>
        <mxCell id="H7FyqApONPE0KEF7_pjt-20" value="pause" style="rounded=0;whiteSpace=wrap;html=1;" vertex="1" parent="CVEjTcs2GT_3670dd3s0-13">
          <mxGeometry x="450" y="210" width="120" height="60" as="geometry" />
        </mxCell>
        <mxCell id="H7FyqApONPE0KEF7_pjt-21" value="changeOwner" style="rounded=0;whiteSpace=wrap;html=1;" vertex="1" parent="CVEjTcs2GT_3670dd3s0-13">
          <mxGeometry x="750" y="130" width="120" height="60" as="geometry" />
        </mxCell>
        <mxCell id="H7FyqApONPE0KEF7_pjt-22" value="decimal" style="rounded=0;whiteSpace=wrap;html=1;" vertex="1" parent="CVEjTcs2GT_3670dd3s0-13">
          <mxGeometry x="160" y="210" width="120" height="60" as="geometry" />
        </mxCell>
        <mxCell id="H7FyqApONPE0KEF7_pjt-23" value="metadata(name, symbol)" style="rounded=0;whiteSpace=wrap;html=1;" vertex="1" parent="CVEjTcs2GT_3670dd3s0-13">
          <mxGeometry x="20" y="210" width="120" height="60" as="geometry" />
        </mxCell>
        <mxCell id="H7FyqApONPE0KEF7_pjt-24" value="setAdminRole" style="rounded=0;whiteSpace=wrap;html=1;" vertex="1" parent="CVEjTcs2GT_3670dd3s0-13">
          <mxGeometry x="600" y="130" width="120" height="60" as="geometry" />
        </mxCell>
        <mxCell id="H7FyqApONPE0KEF7_pjt-25" value="fronzen" style="rounded=0;whiteSpace=wrap;html=1;" vertex="1" parent="CVEjTcs2GT_3670dd3s0-13">
          <mxGeometry x="600" y="210" width="120" height="60" as="geometry" />
        </mxCell>
        <mxCell id="CVEjTcs2GT_3670dd3s0-6" value="ERC Standards" style="swimlane;whiteSpace=wrap;html=1;" parent="CVEjTcs2GT_3670dd3s0-15" vertex="1">
          <mxGeometry x="90" y="800" width="900" height="130" as="geometry" />
        </mxCell>
        <mxCell id="CVEjTcs2GT_3670dd3s0-7" value="ERC20" style="rounded=0;whiteSpace=wrap;html=1;" parent="CVEjTcs2GT_3670dd3s0-6" vertex="1">
          <mxGeometry x="30" y="40" width="120" height="60" as="geometry" />
        </mxCell>
        <mxCell id="CVEjTcs2GT_3670dd3s0-8" value="ERC165" style="rounded=0;whiteSpace=wrap;html=1;" parent="CVEjTcs2GT_3670dd3s0-6" vertex="1">
          <mxGeometry x="200" y="40" width="120" height="60" as="geometry" />
        </mxCell>
        <mxCell id="CVEjTcs2GT_3670dd3s0-12" value="ERC1967" style="rounded=0;whiteSpace=wrap;html=1;" parent="CVEjTcs2GT_3670dd3s0-6" vertex="1">
          <mxGeometry x="380" y="40" width="120" height="60" as="geometry" />
        </mxCell>
        <mxCell id="CVEjTcs2GT_3670dd3s0-10" value="ERC3643 (optional)" style="rounded=0;whiteSpace=wrap;html=1;" parent="CVEjTcs2GT_3670dd3s0-6" vertex="1">
          <mxGeometry x="740" y="40" width="120" height="60" as="geometry" />
        </mxCell>
        <mxCell id="CVEjTcs2GT_3670dd3s0-9" value="ERC2612 (optional)" style="rounded=0;whiteSpace=wrap;html=1;" parent="CVEjTcs2GT_3670dd3s0-6" vertex="1">
          <mxGeometry x="560" y="40" width="120" height="60" as="geometry" />
        </mxCell>
        <mxCell id="H7FyqApONPE0KEF7_pjt-15" value="Contract" style="swimlane;whiteSpace=wrap;html=1;" vertex="1" parent="CVEjTcs2GT_3670dd3s0-15">
          <mxGeometry x="95" y="990" width="885" height="100" as="geometry" />
        </mxCell>
        <mxCell id="H7FyqApONPE0KEF7_pjt-16" value="Proxy Contract (UUPS)" style="rounded=0;whiteSpace=wrap;html=1;" vertex="1" parent="H7FyqApONPE0KEF7_pjt-15">
          <mxGeometry x="80" y="30" width="160" height="60" as="geometry" />
        </mxCell>
        <mxCell id="H7FyqApONPE0KEF7_pjt-17" value="Logic Contract (USD1)" style="rounded=0;whiteSpace=wrap;html=1;" vertex="1" parent="H7FyqApONPE0KEF7_pjt-15">
          <mxGeometry x="640" y="30" width="150" height="60" as="geometry" />
        </mxCell>
        <mxCell id="H7FyqApONPE0KEF7_pjt-31" value="Owner Contract" style="rounded=0;whiteSpace=wrap;html=1;" vertex="1" parent="H7FyqApONPE0KEF7_pjt-15">
          <mxGeometry x="360" y="30" width="160" height="60" as="geometry" />
        </mxCell>
        <mxCell id="CVEjTcs2GT_3670dd3s0-2" value="Tool Chain" style="swimlane;whiteSpace=wrap;html=1;" parent="CVEjTcs2GT_3670dd3s0-15" vertex="1">
          <mxGeometry x="90" y="1140" width="900" height="140" as="geometry" />
        </mxCell>
        <mxCell id="CVEjTcs2GT_3670dd3s0-3" value="Remix IDE" style="rounded=0;whiteSpace=wrap;html=1;" parent="CVEjTcs2GT_3670dd3s0-2" vertex="1">
          <mxGeometry x="30" y="40" width="120" height="60" as="geometry" />
        </mxCell>
        <mxCell id="CVEjTcs2GT_3670dd3s0-4" value="Foundry or Hardhat" style="rounded=0;whiteSpace=wrap;html=1;" parent="CVEjTcs2GT_3670dd3s0-2" vertex="1">
          <mxGeometry x="200" y="40" width="120" height="60" as="geometry" />
        </mxCell>
        <mxCell id="CVEjTcs2GT_3670dd3s0-5" value="Openzepplin package" style="rounded=0;whiteSpace=wrap;html=1;" parent="CVEjTcs2GT_3670dd3s0-2" vertex="1">
          <mxGeometry x="370" y="40" width="130" height="60" as="geometry" />
        </mxCell>
        <mxCell id="H7FyqApONPE0KEF7_pjt-18" value="Rust or Nodejs" style="rounded=0;whiteSpace=wrap;html=1;" vertex="1" parent="CVEjTcs2GT_3670dd3s0-2">
          <mxGeometry x="545" y="40" width="130" height="60" as="geometry" />
        </mxCell>
        <mxCell id="CVEjTcs2GT_3670dd3s0-14" value="Security" style="swimlane;whiteSpace=wrap;html=1;" parent="CVEjTcs2GT_3670dd3s0-15" vertex="1">
          <mxGeometry x="90" y="390" width="900" height="390" as="geometry" />
        </mxCell>
        <mxCell id="H7FyqApONPE0KEF7_pjt-26" value="transfer / transferFrom" style="rounded=0;whiteSpace=wrap;html=1;shape=swimlane;fontStyle=1;startSize=23;" vertex="1" parent="CVEjTcs2GT_3670dd3s0-14">
          <mxGeometry x="25" y="40" width="235" height="210" as="geometry" />
        </mxCell>
        <mxCell id="H7FyqApONPE0KEF7_pjt-27" value="&amp;nbsp;pause check" style="rounded=0;whiteSpace=wrap;html=1;" vertex="1" parent="H7FyqApONPE0KEF7_pjt-26">
          <mxGeometry x="17.5" y="40" width="85" height="40" as="geometry" />
        </mxCell>
        <mxCell id="H7FyqApONPE0KEF7_pjt-29" value="&amp;nbsp;zero address check" style="rounded=0;whiteSpace=wrap;html=1;" vertex="1" parent="H7FyqApONPE0KEF7_pjt-26">
          <mxGeometry x="125" y="40" width="85" height="40" as="geometry" />
        </mxCell>
        <mxCell id="H7FyqApONPE0KEF7_pjt-30" value="&amp;nbsp;blacklist check" style="rounded=0;whiteSpace=wrap;html=1;" vertex="1" parent="H7FyqApONPE0KEF7_pjt-26">
          <mxGeometry x="17.5" y="90" width="85" height="40" as="geometry" />
        </mxCell>
        <mxCell id="H7FyqApONPE0KEF7_pjt-36" value="&amp;nbsp;balance check" style="rounded=0;whiteSpace=wrap;html=1;" vertex="1" parent="H7FyqApONPE0KEF7_pjt-26">
          <mxGeometry x="125" y="90" width="85" height="40" as="geometry" />
        </mxCell>
        <mxCell id="H7FyqApONPE0KEF7_pjt-37" value="&amp;nbsp;allowance check (transferFrom)" style="rounded=0;whiteSpace=wrap;html=1;" vertex="1" parent="H7FyqApONPE0KEF7_pjt-26">
          <mxGeometry x="61.25" y="150" width="112.5" height="50" as="geometry" />
        </mxCell>
        <mxCell id="H7FyqApONPE0KEF7_pjt-32" value="approve" style="rounded=0;whiteSpace=wrap;html=1;shape=swimlane;fontStyle=1;startSize=23;" vertex="1" parent="CVEjTcs2GT_3670dd3s0-14">
          <mxGeometry x="330" y="50" width="235" height="140" as="geometry" />
        </mxCell>
        <mxCell id="H7FyqApONPE0KEF7_pjt-33" value="&amp;nbsp;pause check" style="rounded=0;whiteSpace=wrap;html=1;" vertex="1" parent="H7FyqApONPE0KEF7_pjt-32">
          <mxGeometry x="17.5" y="40" width="85" height="40" as="geometry" />
        </mxCell>
        <mxCell id="H7FyqApONPE0KEF7_pjt-34" value="&amp;nbsp;zero address check" style="rounded=0;whiteSpace=wrap;html=1;" vertex="1" parent="H7FyqApONPE0KEF7_pjt-32">
          <mxGeometry x="125" y="40" width="85" height="40" as="geometry" />
        </mxCell>
        <mxCell id="H7FyqApONPE0KEF7_pjt-35" value="&amp;nbsp;blacklist check" style="rounded=0;whiteSpace=wrap;html=1;" vertex="1" parent="H7FyqApONPE0KEF7_pjt-32">
          <mxGeometry x="17.5" y="90" width="85" height="40" as="geometry" />
        </mxCell>
        <mxCell id="H7FyqApONPE0KEF7_pjt-38" value="mint / burn" style="rounded=0;whiteSpace=wrap;html=1;shape=swimlane;fontStyle=1;startSize=23;" vertex="1" parent="CVEjTcs2GT_3670dd3s0-14">
          <mxGeometry x="25" y="270" width="235" height="100" as="geometry" />
        </mxCell>
        <mxCell id="H7FyqApONPE0KEF7_pjt-39" value="&amp;nbsp;role check" style="rounded=0;whiteSpace=wrap;html=1;" vertex="1" parent="H7FyqApONPE0KEF7_pjt-38">
          <mxGeometry x="17.5" y="40" width="85" height="40" as="geometry" />
        </mxCell>
        <mxCell id="H7FyqApONPE0KEF7_pjt-40" value="&amp;nbsp;zero address check" style="rounded=0;whiteSpace=wrap;html=1;" vertex="1" parent="H7FyqApONPE0KEF7_pjt-38">
          <mxGeometry x="125" y="40" width="85" height="40" as="geometry" />
        </mxCell>
        <mxCell id="H7FyqApONPE0KEF7_pjt-43" value="pause" style="rounded=0;whiteSpace=wrap;html=1;shape=swimlane;fontStyle=1;startSize=23;" vertex="1" parent="CVEjTcs2GT_3670dd3s0-14">
          <mxGeometry x="630" y="220" width="225" height="100" as="geometry" />
        </mxCell>
        <mxCell id="H7FyqApONPE0KEF7_pjt-44" value="&amp;nbsp;role check" style="rounded=0;whiteSpace=wrap;html=1;" vertex="1" parent="H7FyqApONPE0KEF7_pjt-43">
          <mxGeometry x="17.5" y="40" width="85" height="40" as="geometry" />
        </mxCell>
        <mxCell id="H7FyqApONPE0KEF7_pjt-47" value="&amp;nbsp;pause check" style="rounded=0;whiteSpace=wrap;html=1;" vertex="1" parent="H7FyqApONPE0KEF7_pjt-43">
          <mxGeometry x="125" y="40" width="85" height="40" as="geometry" />
        </mxCell>
        <mxCell id="H7FyqApONPE0KEF7_pjt-54" value="setRole" style="rounded=0;whiteSpace=wrap;html=1;shape=swimlane;fontStyle=1;startSize=23;" vertex="1" parent="CVEjTcs2GT_3670dd3s0-14">
          <mxGeometry x="630" y="60" width="225" height="100" as="geometry" />
        </mxCell>
        <mxCell id="H7FyqApONPE0KEF7_pjt-55" value="&amp;nbsp;role check" style="rounded=0;whiteSpace=wrap;html=1;" vertex="1" parent="H7FyqApONPE0KEF7_pjt-54">
          <mxGeometry x="17.5" y="40" width="85" height="40" as="geometry" />
        </mxCell>
        <mxCell id="H7FyqApONPE0KEF7_pjt-56" value="&amp;nbsp;zero address check" style="rounded=0;whiteSpace=wrap;html=1;" vertex="1" parent="H7FyqApONPE0KEF7_pjt-54">
          <mxGeometry x="125" y="40" width="85" height="40" as="geometry" />
        </mxCell>
        <mxCell id="H7FyqApONPE0KEF7_pjt-49" value="blacklist" style="rounded=0;whiteSpace=wrap;html=1;shape=swimlane;fontStyle=1;startSize=23;" vertex="1" parent="CVEjTcs2GT_3670dd3s0-14">
          <mxGeometry x="290" y="220" width="130" height="100" as="geometry" />
        </mxCell>
        <mxCell id="H7FyqApONPE0KEF7_pjt-50" value="&amp;nbsp;role check" style="rounded=0;whiteSpace=wrap;html=1;" vertex="1" parent="H7FyqApONPE0KEF7_pjt-49">
          <mxGeometry x="17.5" y="40" width="85" height="40" as="geometry" />
        </mxCell>
        <mxCell id="H7FyqApONPE0KEF7_pjt-58" value="upgrade / changeOwner" style="rounded=0;whiteSpace=wrap;html=1;shape=swimlane;fontStyle=1;startSize=23;" vertex="1" parent="CVEjTcs2GT_3670dd3s0-14">
          <mxGeometry x="440" y="220" width="170" height="100" as="geometry" />
        </mxCell>
        <mxCell id="H7FyqApONPE0KEF7_pjt-59" value="owner check" style="rounded=0;whiteSpace=wrap;html=1;" vertex="1" parent="H7FyqApONPE0KEF7_pjt-58">
          <mxGeometry x="32.5" y="40" width="85" height="40" as="geometry" />
        </mxCell>
      </root>
    </mxGraphModel>
  </diagram>
</mxfile>
